<?xml version="1.0" standalone="no"?>
<!DOCTYPE svg PUBLIC "-//W3C//DTD SVG 20010904//EN"
 "http://www.w3.org/TR/2001/REC-SVG-20010904/DTD/svg10.dtd">
<svg version="1.0" xmlns="http://www.w3.org/2000/svg"
 width="1024.000000pt" height="1024.000000pt" viewBox="0 0 1024.000000 1024.000000"
 preserveAspectRatio="xMidYMid meet">

<g transform="translate(0.000000,1024.000000) scale(0.100000,-0.100000)"
fill="#000000" stroke="none">
<path d="M2730 6496 c-30 -7 -85 -27 -122 -44 -81 -39 -255 -153 -321 -210
-58 -50 -77 -56 -173 -50 -56 4 -74 2 -74 -8 0 -7 8 -15 18 -17 9 -3 -10 -2
-43 0 -52 5 -68 2 -110 -20 -112 -57 -183 -144 -253 -307 -52 -121 -73 -221
-74 -340 -1 -190 34 -293 172 -510 117 -184 200 -266 459 -455 310 -225 481
-379 481 -431 0 -19 -7 -28 -30 -35 -47 -17 -36 -29 28 -31 136 -4 184 8 207
53 22 41 18 87 -10 148 -45 96 -112 179 -309 381 -117 121 -138 148 -193 250
-68 127 -83 173 -82 270 0 157 75 323 243 534 89 112 130 178 147 233 16 55 2
73 -55 74 -22 1 -33 3 -23 6 39 10 15 37 -56 63 -16 5 -34 24 -44 44 -24 51
-6 101 64 176 98 106 233 156 446 167 122 6 165 16 115 28 -13 3 -61 14 -108
25 -96 22 -215 25 -300 6z m-459 -389 c35 -13 78 -31 94 -40 48 -26 3 -21 -57
7 -29 13 -69 31 -88 39 -54 24 -21 20 51 -6z m242 -104 c-7 -2 -21 -2 -30 0
-10 3 -4 5 12 5 17 0 24 -2 18 -5z"/>
<path d="M6250 6469 c-25 -4 -101 -14 -170 -21 -120 -12 -125 -14 -128 -37 -5
-32 9 -38 95 -47 56 -5 76 -11 83 -25 11 -20 13 -1436 2 -1509 l-7 -45 -85
-15 c-84 -15 -85 -15 -85 -45 l0 -30 283 -3 282 -2 0 34 c0 33 0 33 -62 45
-35 6 -75 14 -90 17 l-28 6 0 375 0 376 40 53 c84 111 179 167 290 172 94 4
131 -16 163 -86 22 -46 22 -56 22 -469 0 -232 -2 -424 -5 -426 -3 -3 -43 -11
-90 -19 -84 -14 -85 -15 -85 -44 l0 -29 283 -3 282 -2 0 34 0 34 -72 12 c-120
20 -108 -31 -108 454 0 352 -3 431 -15 474 -36 119 -154 192 -310 191 -116 0
-224 -48 -325 -145 -31 -30 -60 -54 -64 -54 -4 0 -6 174 -6 386 1 310 -1 389
-12 395 -14 10 -15 10 -78 -2z"/>
<path d="M4378 6093 c-36 -90 -78 -172 -103 -201 -28 -33 -111 -82 -139 -82
-17 0 -30 -37 -24 -67 3 -15 18 -20 81 -27 l77 -8 0 -397 c1 -416 5 -462 48
-546 26 -52 56 -79 115 -104 88 -38 189 -20 318 55 57 34 58 35 47 64 -5 17
-14 32 -18 35 -5 3 -32 -7 -60 -21 -104 -52 -175 -42 -209 30 -33 67 -41 163
-41 518 l0 338 23 4 c12 3 83 13 157 23 l135 19 0 39 0 40 -157 3 -158 3 0
154 0 155 -40 0 c-35 0 -42 -4 -52 -27z"/>
<path d="M3351 5895 c-118 -29 -237 -109 -277 -187 -9 -17 -19 -60 -22 -94 -4
-56 -2 -63 19 -78 26 -18 112 -22 151 -7 19 7 25 21 36 76 28 150 101 219 232
220 52 0 71 -5 98 -23 66 -47 92 -140 92 -322 l0 -120 -38 0 c-74 0 -248 -31
-334 -60 -146 -49 -229 -113 -273 -212 -39 -85 -41 -207 -7 -283 72 -158 241
-205 445 -126 40 16 114 68 169 119 26 24 52 41 57 37 6 -3 11 -32 12 -63 1
-31 4 -68 8 -82 8 -28 10 -28 126 -15 39 4 104 10 145 14 75 6 75 6 75 35 0
29 -1 30 -85 44 -47 8 -88 19 -92 26 -4 6 -8 189 -8 406 0 417 -6 484 -48 566
-24 47 -54 75 -107 102 -82 40 -264 53 -374 27z m313 -601 c14 -5 16 -31 16
-188 l0 -182 -42 -40 c-145 -138 -332 -165 -404 -57 -23 36 -32 187 -14 253
27 99 146 169 355 208 68 13 71 13 89 6z"/>
<path d="M5326 5895 c-92 -25 -174 -74 -244 -144 -125 -125 -173 -256 -173
-476 0 -221 47 -370 153 -481 65 -68 116 -99 216 -130 168 -52 368 -11 500
101 46 40 52 63 22 90 -20 18 -21 17 -63 -12 -175 -125 -352 -137 -474 -30
-40 35 -92 139 -114 227 -21 83 -18 375 4 464 64 254 235 386 384 295 51 -32
89 -111 102 -213 5 -44 9 -51 30 -54 34 -5 141 17 169 35 21 13 22 19 16 61
-8 61 -49 137 -93 173 -109 90 -300 131 -435 94z"/>
<path d="M7220 5827 l0 -33 85 -19 c47 -10 89 -23 94 -29 8 -11 274 -673 374
-929 l49 -127 -73 -168 c-40 -92 -82 -177 -93 -189 -37 -43 -115 -24 -189 46
l-29 26 -47 -52 c-31 -33 -52 -67 -59 -95 -11 -42 -10 -44 21 -76 61 -61 181
-75 268 -31 62 31 122 125 188 292 16 40 95 234 176 432 81 198 176 430 211
515 34 85 83 204 108 265 l45 110 88 15 c87 16 88 16 88 45 l0 30 -235 0 -235
0 0 -30 c0 -33 -10 -28 123 -51 23 -3 42 -12 42 -19 0 -7 -56 -162 -124 -346
-68 -184 -131 -358 -141 -387 -9 -29 -21 -52 -27 -50 -5 2 -36 82 -68 178 -32
96 -99 271 -148 387 -63 149 -86 215 -78 222 6 4 48 14 94 21 l82 12 0 34 0
34 -295 0 -295 0 0 -33z"/>
<path d="M3450 4426 c0 -15 24 -28 34 -19 13 14 5 33 -14 33 -11 0 -20 -6 -20
-14z"/>
<path d="M4602 4424 c4 -21 22 -23 26 -1 2 10 -3 17 -13 17 -10 0 -15 -6 -13
-16z"/>
<path d="M4855 4430 c-7 -12 2 -30 16 -30 5 0 9 9 9 20 0 21 -15 27 -25 10z"/>
<path d="M5496 4431 c-7 -11 18 -33 27 -24 4 3 7 12 7 20 0 15 -26 18 -34 4z"/>
<path d="M5612 4418 c-6 -6 -12 -22 -12 -35 0 -14 -6 -23 -15 -23 -8 0 -15 -7
-15 -15 0 -8 7 -15 15 -15 12 0 15 -15 15 -75 0 -43 4 -75 10 -75 6 0 10 32
10 75 l0 75 45 0 45 0 2 -57 c1 -32 2 -66 1 -75 0 -10 6 -18 14 -18 10 0 13
19 13 74 0 65 2 74 20 79 23 6 27 27 6 27 -8 0 -18 5 -21 10 -10 17 15 40 42
40 14 0 21 4 18 10 -9 14 -58 13 -73 -2 -7 -7 -12 -20 -12 -30 0 -23 -36 -38
-73 -31 -41 8 -36 41 6 45 17 2 32 8 32 13 0 15 -58 18 -73 3z"/>
<path d="M6680 4317 c0 -120 6 -137 47 -137 29 0 30 12 1 25 -22 9 -23 16 -23
118 0 79 -3 107 -12 107 -10 0 -13 -29 -13 -113z"/>
<path d="M4045 4410 c-47 -6 -47 -14 0 -22 17 -3 21 -14 28 -68 4 -36 6 -82 3
-102 -3 -29 0 -38 10 -38 11 0 14 12 13 48 -2 26 -2 73 -1 105 2 56 2 57 31
57 34 0 49 15 25 24 -17 7 -34 6 -109 -4z"/>
<path d="M5293 4413 c-22 -4 -23 -8 -23 -119 l0 -114 48 0 c93 0 145 65 122
152 -16 57 -83 94 -147 81z m98 -52 c52 -52 29 -140 -41 -154 -54 -11 -60 -3
-60 87 0 46 3 86 7 89 17 17 66 6 94 -22z"/>
<path d="M3280 4295 l0 -115 71 0 c52 0 70 3 67 13 -3 7 -26 13 -54 15 -27 2
-52 9 -56 15 -4 7 -8 51 -8 100 0 51 -4 87 -10 87 -6 0 -10 -45 -10 -115z"/>
<path d="M6550 4386 c0 -13 -8 -27 -17 -31 -17 -6 -17 -7 0 -20 13 -9 19 -29
22 -66 4 -75 12 -89 46 -89 36 0 38 16 4 24 -28 7 -38 35 -33 87 2 25 9 35 26
39 30 7 33 24 5 28 -22 3 -27 12 -24 40 1 6 -5 12 -14 12 -9 0 -15 -9 -15 -24z"/>
<path d="M3742 4338 c-30 -33 -36 -69 -18 -111 15 -38 42 -51 90 -45 37 4 28
22 -11 24 -35 1 -63 19 -63 40 0 10 15 14 54 14 30 0 57 4 60 9 8 12 -12 73
-26 83 -24 15 -64 8 -86 -14z m86 -20 c22 -22 13 -28 -38 -28 -27 0 -50 4 -50
8 0 16 25 32 50 32 14 0 31 -5 38 -12z"/>
<path d="M4190 4282 c0 -47 5 -83 12 -90 15 -15 53 -16 78 -2 13 7 21 7 25 0
3 -5 13 -10 22 -10 12 0 13 6 7 28 -4 15 -8 54 -8 86 -1 38 -5 61 -13 63 -10
4 -13 -14 -13 -66 0 -68 -1 -72 -26 -81 -17 -7 -32 -7 -45 0 -16 9 -19 22 -19
80 0 40 -4 70 -10 70 -6 0 -10 -33 -10 -78z"/>
<path d="M4398 4353 c-2 -5 -2 -45 0 -90 4 -94 22 -114 22 -25 0 48 4 62 23
80 13 12 28 22 35 22 24 0 42 -45 42 -103 0 -32 3 -56 8 -54 8 6 6 152 -3 167
-8 13 -68 13 -82 -1 -8 -8 -13 -8 -17 0 -8 13 -23 14 -28 4z"/>
<path d="M4610 4358 c0 -2 -2 -42 -4 -90 -3 -51 -1 -88 5 -88 5 0 9 41 9 90 0
50 -2 90 -5 90 -3 0 -5 -1 -5 -2z"/>
<path d="M4702 4348 c-7 -7 -12 -24 -12 -39 0 -22 8 -31 45 -48 64 -30 57 -57
-13 -53 -24 2 -33 -1 -30 -10 3 -7 23 -14 45 -16 33 -2 44 1 56 18 22 32 9 59
-40 83 -51 25 -51 41 0 45 24 2 37 8 37 18 0 18 -70 20 -88 2z"/>
<path d="M4859 4308 c0 -29 -1 -70 -3 -90 -2 -27 1 -38 11 -38 10 0 13 21 13
90 0 53 -4 90 -10 90 -5 0 -10 -24 -11 -52z"/>
<path d="M4956 4329 c-50 -59 -21 -149 49 -149 19 0 37 5 40 10 4 7 12 7 25 0
28 -15 32 -12 24 12 -4 13 -6 53 -5 90 l2 68 -55 0 c-48 0 -57 -3 -80 -31z
m102 -56 c3 -48 1 -54 -22 -65 -58 -26 -108 42 -71 98 13 21 23 25 53 22 l37
-3 3 -52z"/>
<path d="M5841 4334 c-28 -36 -29 -106 0 -135 15 -15 30 -19 62 -17 48 3 48
22 0 24 -35 1 -63 19 -63 40 0 10 16 14 59 14 33 0 62 4 65 9 9 14 -15 71 -34
81 -33 18 -68 11 -89 -16z m97 -28 c3 -13 -6 -16 -48 -16 -56 0 -64 15 -20 37
27 13 64 3 68 -21z"/>
<path d="M6020 4268 c0 -52 4 -88 10 -88 6 0 10 25 10 56 0 52 3 60 35 90 l35
32 -45 -1 -45 -2 0 -87z"/>
<path d="M6160 4335 c-32 -34 -31 -97 1 -131 19 -20 31 -24 64 -22 50 4 53 23
3 24 -40 1 -68 18 -68 40 0 9 18 14 58 16 50 3 57 6 60 25 9 65 -71 98 -118
48z m78 -11 c34 -24 26 -34 -28 -34 -27 0 -50 4 -50 9 0 10 39 41 50 41 3 0
16 -7 28 -16z"/>
<path d="M6338 4270 c-2 -67 0 -90 10 -90 8 0 12 18 12 58 0 31 4 62 8 68 14
21 46 33 64 23 15 -8 18 -23 18 -79 0 -56 3 -70 15 -70 19 0 21 113 2 150 -14
29 -59 39 -84 18 -13 -10 -17 -10 -20 0 -12 34 -22 3 -25 -78z"/>
<path d="M3460 4265 c0 -50 4 -85 10 -85 6 0 10 35 10 85 0 50 -4 85 -10 85
-6 0 -10 -35 -10 -85z"/>
<path d="M3530 4343 c0 -5 13 -42 29 -83 38 -100 53 -100 93 3 16 43 27 81 24
84 -8 8 -8 8 -37 -62 -14 -33 -29 -60 -34 -60 -6 0 -19 27 -31 60 -12 32 -26
61 -33 63 -6 2 -11 0 -11 -5z"/>
<path d="M5500 4265 c0 -61 3 -85 13 -85 9 0 11 22 9 85 -2 47 -8 85 -13 85
-5 0 -9 -38 -9 -85z"/>
<path d="M6767 4344 c-4 -5 31 -93 65 -161 13 -27 -8 -57 -48 -67 -35 -9 -30
-28 7 -24 24 2 36 11 50 38 20 39 79 196 79 212 0 24 -27 -14 -39 -54 -25 -84
-48 -83 -76 3 -16 48 -27 64 -38 53z"/>
</g>
</svg>
